<svg xmlns="http://www.w3.org/2000/svg" viewBox="0 0 1200 630" width="1200" height="630">
  <defs>
    <linearGradient id="bg" x1="0%" y1="0%" x2="100%" y2="100%">
      <stop offset="0%" style="stop-color:#0d3d22"/>
      <stop offset="60%" style="stop-color:#1a6b3c"/>
      <stop offset="100%" style="stop-color:#2d9e5f"/>
    </linearGradient>
    <linearGradient id="gold" x1="0%" y1="0%" x2="100%" y2="0%">
      <stop offset="0%" style="stop-color:#d4921e"/>
      <stop offset="100%" style="stop-color:#f0b040"/>
    </linearGradient>
  </defs>

  <!-- Background -->
  <rect width="1200" height="630" fill="url(#bg)"/>

  <!-- Decorative circles -->
  <circle cx="980" cy="100" r="260" fill="none" stroke="rgba(255,255,255,0.06)" stroke-width="1"/>
  <circle cx="980" cy="100" r="160" fill="none" stroke="rgba(255,255,255,0.05)" stroke-width="1"/>
  <circle cx="100" cy="580" r="300" fill="none" stroke="rgba(212,146,30,0.08)" stroke-width="1"/>

  <!-- Gold accent bar -->
  <rect x="80" y="200" width="6" height="160" rx="3" fill="url(#gold)"/>

  <!-- ── REAL LOGO ICON (favicon SVG embedded) ── -->
  <!-- Positioned at x=79, y=94 — size 72x72 to match original circle -->
  <svg x="79" y="94" width="72" height="72" viewBox="0 0 64 64" xmlns="http://www.w3.org/2000/svg">

    <!-- Background circle green -->
    <circle cx="32" cy="32" r="32" fill="#1a6b3c"/>

    <!-- SUN -->
    <ellipse cx="32" cy="41" rx="13" ry="9" fill="#f5d800"/>

    <!-- Sun rays red -->
    <line x1="32" y1="29" x2="32" y2="23" stroke="#cc0000" stroke-width="2" stroke-linecap="round"/>
    <line x1="38" y1="31" x2="43" y2="26" stroke="#cc0000" stroke-width="2" stroke-linecap="round"/>
    <line x1="42" y1="37" x2="48" y2="35" stroke="#cc0000" stroke-width="2" stroke-linecap="round"/>
    <line x1="26" y1="31" x2="21" y2="26" stroke="#cc0000" stroke-width="2" stroke-linecap="round"/>
    <line x1="22" y1="37" x2="16" y2="35" stroke="#cc0000" stroke-width="2" stroke-linecap="round"/>
    <line x1="35" y1="30" x2="37" y2="24" stroke="#cc0000" stroke-width="1.5" stroke-linecap="round"/>
    <line x1="29" y1="30" x2="27" y2="24" stroke="#cc0000" stroke-width="1.5" stroke-linecap="round"/>

    <!-- PERSON TOP-LEFT -->
    <circle cx="17" cy="16" r="4" fill="#111"/>
    <ellipse cx="17" cy="25" rx="3.5" ry="4.5" fill="#111"/>

    <!-- PERSON TOP-RIGHT -->
    <circle cx="47" cy="16" r="4" fill="#111"/>
    <ellipse cx="47" cy="25" rx="3.5" ry="4.5" fill="#111"/>

    <!-- PERSON BOTTOM-LEFT -->
    <circle cx="11" cy="35" r="3.5" fill="#111"/>
    <ellipse cx="11" cy="43" rx="3" ry="4" fill="#111"/>

    <!-- PERSON BOTTOM-RIGHT -->
    <circle cx="53" cy="35" r="3.5" fill="#111"/>
    <ellipse cx="53" cy="43" rx="3" ry="4" fill="#111"/>

    <!-- ARMS LINKING -->
    <path d="M21 20 Q32 13 43 20" stroke="#111" stroke-width="2.2" fill="none" stroke-linecap="round"/>
    <path d="M14 23 Q9 29 11 32" stroke="#111" stroke-width="2.2" fill="none" stroke-linecap="round"/>
    <path d="M50 23 Q55 29 53 32" stroke="#111" stroke-width="2.2" fill="none" stroke-linecap="round"/>
    <path d="M14 45 Q22 51 32 51" stroke="#111" stroke-width="2" fill="none" stroke-linecap="round"/>
    <path d="M50 45 Q42 51 32 51" stroke="#111" stroke-width="2" fill="none" stroke-linecap="round"/>

  </svg>
  <!-- ── END LOGO ICON ── -->

  <!-- Foundation name -->
  <text x="165" y="118" font-family="Georgia, serif" font-size="38" font-weight="900" fill="white" letter-spacing="0.5">Subaita Foundation</text>
  <text x="165" y="148" font-family="Arial, sans-serif" font-size="16" fill="rgba(255,255,255,0.6)" letter-spacing="4">EMPOWER · EDUCATE · ELEVATE</text>

  <!-- Main headline -->
  <text x="100" y="270" font-family="Georgia, serif" font-size="62" font-weight="900" fill="white">Empowering Women,</text>
  <text x="100" y="345" font-family="Georgia, serif" font-size="62" font-weight="900" fill="url(#gold)">Transforming Communities.</text>

  <!-- Description -->
  <text x="102" y="415" font-family="Arial, sans-serif" font-size="22" fill="rgba(255,255,255,0.72)">A non-profit organization in Narayanganj, Bangladesh dedicated to</text>
  <text x="102" y="445" font-family="Arial, sans-serif" font-size="22" fill="rgba(255,255,255,0.72)">women's empowerment, skill development &amp; social protection.</text>

  <!-- Divider -->
  <line x1="100" y1="490" x2="700" y2="490" stroke="rgba(255,255,255,0.15)" stroke-width="1"/>

  <!-- Stats -->
  <text x="100" y="530" font-family="Georgia, serif" font-size="32" font-weight="900" fill="#f0b040">5,000+</text>
  <text x="100" y="558" font-family="Arial, sans-serif" font-size="14" fill="rgba(255,255,255,0.55)" letter-spacing="1">WOMEN SUPPORTED</text>

  <text x="295" y="530" font-family="Georgia, serif" font-size="32" font-weight="900" fill="#f0b040">40+</text>
  <text x="295" y="558" font-family="Arial, sans-serif" font-size="14" fill="rgba(255,255,255,0.55)" letter-spacing="1">PROGRAMS</text>

  <text x="450" y="530" font-family="Georgia, serif" font-size="32" font-weight="900" fill="#f0b040">10+</text>
  <text x="450" y="558" font-family="Arial, sans-serif" font-size="14" fill="rgba(255,255,255,0.55)" letter-spacing="1">YEARS</text>

  <text x="590" y="530" font-family="Georgia, serif" font-size="32" font-weight="900" fill="#f0b040">150+</text>
  <text x="590" y="558" font-family="Arial, sans-serif" font-size="14" fill="rgba(255,255,255,0.55)" letter-spacing="1">VOLUNTEERS</text>

  <!-- URL -->
  <text x="1100" y="600" font-family="Arial, sans-serif" font-size="18" fill="rgba(255,255,255,0.4)" text-anchor="end">subaitafoundation.com</text>

</svg>
